<svg width="399" height="436" viewBox="0 0 399 436" fill="none" xmlns="http://www.w3.org/2000/svg">
<ellipse cx="31.3607" cy="31.3055" rx="31.3607" ry="31.3055" fill="#FFE0BF"/>
<path fill-rule="evenodd" clip-rule="evenodd" d="M74.7214 21.113L74.7214 -2.80713e-05C92.0414 -2.73155e-05 106.082 14.016 106.082 31.3055C106.082 48.5951 92.0414 62.611 74.7214 62.611L74.7214 41.498C80.3605 41.498 84.9318 36.9347 84.9318 31.3055C84.9318 25.6763 80.3605 21.113 74.7214 21.113Z" fill="#FFE0BF"/>
<rect x="197.979" width="62.7213" height="62.611" fill="#FFE0BF"/>
<path d="M157.856 -1.22714e-06L185.979 31.3055L157.856 62.611L118.082 62.611L118.082 -2.96267e-06L157.856 -1.22714e-06Z" fill="#FFE0BF"/>
<path d="M371.841 0L399 15.6528V46.9583L371.841 62.611L344.682 46.9583V15.6528L371.841 0Z" fill="#FFE0BF"/>
<path d="M301.056 0H272.701V21.6165H301.056C306.467 21.6165 310.857 25.9734 310.857 31.3055C310.857 36.6367 306.467 40.9946 301.056 40.9946H272.701V62.611H301.056C318.487 62.611 332.682 48.5785 332.682 31.3055C332.682 14.0325 318.487 0 301.056 0Z" fill="#FFE0BF"/>
<ellipse cx="31.3607" cy="180.528" rx="31.3607" ry="31.3055" fill="#FFE0BF"/>
<path fill-rule="evenodd" clip-rule="evenodd" d="M74.7214 170.335L74.7214 149.222C92.0414 149.222 106.082 163.238 106.082 180.528C106.082 197.817 92.0414 211.833 74.7214 211.833L74.7214 190.72C80.3605 190.72 84.9318 186.157 84.9318 180.528C84.9318 174.899 80.3605 170.335 74.7214 170.335Z" fill="#FFE0BF"/>
<rect x="197.979" y="149.222" width="62.7213" height="62.611" fill="#FFE0BF"/>
<path d="M157.856 149.222L185.979 180.528L157.856 211.833L118.082 211.833L118.082 149.222L157.856 149.222Z" fill="#FFE0BF"/>
<path d="M371.841 149.222L399 164.875V196.181L371.841 211.833L344.682 196.181V164.875L371.841 149.222Z" fill="#FFE0BF"/>
<path d="M301.056 149.222H272.701V170.839H301.056C306.467 170.839 310.857 175.196 310.857 180.528C310.857 185.859 306.467 190.217 301.056 190.217H272.701V211.833H301.056C318.487 211.833 332.682 197.801 332.682 180.528C332.682 163.255 318.487 149.222 301.056 149.222Z" fill="#FFE0BF"/>
<ellipse cx="31.3607" cy="329.75" rx="31.3607" ry="31.3055" fill="#FFE0BF"/>
<path fill-rule="evenodd" clip-rule="evenodd" d="M74.7214 319.558L74.7214 298.445C92.0414 298.445 106.082 312.461 106.082 329.75C106.082 347.04 92.0414 361.056 74.7214 361.056L74.7214 339.943C80.3605 339.943 84.9318 335.379 84.9318 329.75C84.9318 324.121 80.3605 319.558 74.7214 319.558Z" fill="#FFE0BF"/>
<rect x="197.979" y="298.445" width="62.7213" height="62.611" fill="#FFE0BF"/>
<path d="M157.856 298.445L185.979 329.75L157.856 361.056L118.082 361.056L118.082 298.445L157.856 298.445Z" fill="#FFE0BF"/>
<path d="M371.841 298.445L399 314.097V345.403L371.841 361.056L344.682 345.403V314.097L371.841 298.445Z" fill="#FFE0BF"/>
<path d="M301.056 298.445H272.701V320.061H301.056C306.467 320.061 310.857 324.418 310.857 329.75C310.857 335.081 306.467 339.439 301.056 339.439H272.701V361.056H301.056C318.487 361.056 332.682 347.023 332.682 329.75C332.682 312.477 318.487 298.445 301.056 298.445Z" fill="#FFE0BF"/>
<ellipse rx="31.3607" ry="31.3055" transform="matrix(-1 0 0 1 367.639 105.917)" fill="#FFE0BF"/>
<path fill-rule="evenodd" clip-rule="evenodd" d="M324.279 95.7241L324.279 74.6111C306.959 74.6111 292.918 88.6271 292.918 105.917C292.918 123.206 306.959 137.222 324.279 137.222L324.279 116.109C318.639 116.109 314.068 111.546 314.068 105.917C314.068 100.287 318.639 95.7241 324.279 95.7241Z" fill="#FFE0BF"/>
<rect width="62.7213" height="62.611" transform="matrix(-1 0 0 1 201.021 74.611)" fill="#FFE0BF"/>
<path d="M241.144 74.611L213.021 105.917L241.144 137.222L280.918 137.222L280.918 74.611L241.144 74.611Z" fill="#FFE0BF"/>
<path d="M27.1592 74.611L9.53674e-05 90.2638V121.569L27.1592 137.222L54.3184 121.569V90.2638L27.1592 74.611Z" fill="#FFE0BF"/>
<path d="M97.944 74.611H126.299V96.2275H97.944C92.5332 96.2275 88.1433 100.584 88.1433 105.917C88.1433 111.248 92.5332 115.606 97.944 115.606H126.299V137.222H97.944C80.5126 137.222 66.3182 123.19 66.3182 105.917C66.3182 88.6435 80.5126 74.611 97.944 74.611Z" fill="#FFE0BF"/>
<ellipse rx="31.3607" ry="31.3055" transform="matrix(-1 0 0 1 367.639 255.139)" fill="#FFE0BF"/>
<path fill-rule="evenodd" clip-rule="evenodd" d="M324.279 244.946L324.279 223.833C306.959 223.833 292.918 237.849 292.918 255.139C292.918 272.429 306.959 286.444 324.279 286.444L324.279 265.331C318.639 265.331 314.068 260.768 314.068 255.139C314.068 249.51 318.639 244.946 324.279 244.946Z" fill="#FFE0BF"/>
<rect width="62.7213" height="62.611" transform="matrix(-1 0 0 1 201.021 223.833)" fill="#FFE0BF"/>
<path d="M241.144 223.833L213.021 255.139L241.144 286.445L280.918 286.445L280.918 223.833L241.144 223.833Z" fill="#FFE0BF"/>
<path d="M27.1592 223.833L9.53674e-05 239.486V270.792L27.1592 286.445L54.3184 270.792V239.486L27.1592 223.833Z" fill="#FFE0BF"/>
<path d="M97.944 223.833H126.299V245.45H97.944C92.5332 245.45 88.1433 249.807 88.1433 255.139C88.1433 260.47 92.5332 264.828 97.944 264.828H126.299V286.445H97.944C80.5126 286.445 66.3182 272.412 66.3182 255.139C66.3182 237.866 80.5126 223.833 97.944 223.833Z" fill="#FFE0BF"/>
<ellipse rx="31.3607" ry="31.3055" transform="matrix(-1 0 0 1 367.639 404.361)" fill="#FFE0BF"/>
<path fill-rule="evenodd" clip-rule="evenodd" d="M324.279 394.169L324.279 373.056C306.959 373.056 292.918 387.072 292.918 404.361C292.918 421.651 306.959 435.667 324.279 435.667L324.279 414.554C318.639 414.554 314.068 409.99 314.068 404.361C314.068 398.732 318.639 394.169 324.279 394.169Z" fill="#FFE0BF"/>
<rect width="62.7213" height="62.611" transform="matrix(-1 0 0 1 201.021 373.056)" fill="#FFE0BF"/>
<path d="M241.144 373.056L213.021 404.361L241.144 435.667L280.918 435.667L280.918 373.056L241.144 373.056Z" fill="#FFE0BF"/>
<path d="M27.1592 373.056L9.53674e-05 388.709V420.014L27.1592 435.667L54.3184 420.014V388.709L27.1592 373.056Z" fill="#FFE0BF"/>
<path d="M97.944 373.056H126.299V394.672H97.944C92.5332 394.672 88.1433 399.029 88.1433 404.361C88.1433 409.693 92.5332 414.05 97.944 414.05H126.299V435.667H97.944C80.5126 435.667 66.3182 421.634 66.3182 404.361C66.3182 387.088 80.5126 373.056 97.944 373.056Z" fill="#FFE0BF"/>
</svg>
