<svg width="605" height="670" viewBox="0 0 605 670" fill="none" xmlns="http://www.w3.org/2000/svg">
<path d="M111.175 55.8697C111.175 86.1718 86.5666 110.739 56.2069 110.739C25.8472 110.739 1.23877 86.1718 1.23877 55.8697C1.23877 25.5677 25.8472 1 56.2069 1C86.5666 1 111.175 25.5677 111.175 55.8697Z" stroke="#FFBB25" stroke-width="2"/>
<path d="M131.397 55.8698C131.397 66.135 123.325 74.515 113.175 75.0344L113.175 110.731C143.073 110.198 167.143 85.8384 167.143 55.8698C167.143 25.9012 143.073 1.54134 113.175 1.00892L113.175 36.7051C123.325 37.2245 131.397 45.6045 131.397 55.8698Z" stroke="#FFBB25" stroke-width="2"/>
<rect x="290.317" y="1.00012" width="109.936" height="109.739" stroke="#FFBB25" stroke-width="2"/>
<path d="M169.143 1.00012L238.681 1.00012L287.973 55.8699L238.681 110.74L169.143 110.74L169.143 1.00012Z" stroke="#FFBB25" stroke-width="2"/>
<path d="M509.299 28.5128L556.769 1.15432L604.238 28.5128V83.2269L556.769 110.585L509.299 83.2269V28.5128Z" stroke="#FFBB25" stroke-width="2"/>
<path d="M401 37.668V1H451.056C481.906 1 507 25.67 507 56C507 86.3299 481.906 111 451.056 111H401V74.332H451.056C461.335 74.332 469.702 66.1046 469.702 56C469.702 45.8937 461.335 37.668 451.056 37.668H401Z" stroke="#FFBB25" stroke-width="2"/>
<path d="M111.175 279.349C111.175 309.651 86.5666 334.218 56.2069 334.218C25.8472 334.218 1.23877 309.651 1.23877 279.349C1.23877 249.047 25.8472 224.479 56.2069 224.479C86.5666 224.479 111.175 249.047 111.175 279.349Z" stroke="#FFBB25" stroke-width="2"/>
<path d="M131.397 279.349C131.397 289.614 123.325 297.994 113.175 298.513L113.175 334.21C143.073 333.677 167.143 309.317 167.143 279.349C167.143 249.38 143.073 225.02 113.175 224.488L113.175 260.184C123.325 260.703 131.397 269.084 131.397 279.349Z" stroke="#FFBB25" stroke-width="2"/>
<rect x="290.317" y="224.479" width="109.936" height="109.739" stroke="#FFBB25" stroke-width="2"/>
<path d="M169.143 224.479L238.681 224.479L287.973 279.349L238.681 334.218L169.143 334.218L169.143 224.479Z" stroke="#FFBB25" stroke-width="2"/>
<path d="M509.299 251.992L556.769 224.633L604.238 251.992V306.706L556.769 334.064L509.299 306.706V251.992Z" stroke="#FFBB25" stroke-width="2"/>
<path d="M402.253 261.057V224.479H451.858C482.425 224.479 507.299 249.084 507.299 279.349C507.299 309.613 482.425 334.218 451.858 334.218H402.253V297.64H451.858C462.057 297.64 470.349 289.425 470.349 279.349C470.349 269.271 462.057 261.057 451.858 261.057H402.253Z" stroke="#FFBB25" stroke-width="2"/>
<path d="M111.175 502.828C111.175 533.13 86.5666 557.697 56.2069 557.697C25.8472 557.697 1.23877 533.13 1.23877 502.828C1.23877 472.526 25.8472 447.958 56.2069 447.958C86.5666 447.958 111.175 472.526 111.175 502.828Z" stroke="#FFBB25" stroke-width="2"/>
<path d="M131.397 502.828C131.397 513.093 123.325 521.473 113.175 521.992L113.175 557.688C143.073 557.156 167.143 532.796 167.143 502.828C167.143 472.859 143.073 448.499 113.175 447.967L113.175 483.663C123.325 484.182 131.397 492.562 131.397 502.828Z" stroke="#FFBB25" stroke-width="2"/>
<rect x="290.317" y="447.958" width="109.936" height="109.739" stroke="#FFBB25" stroke-width="2"/>
<path d="M169.143 447.958L238.681 447.958L287.973 502.828L238.681 557.697L169.143 557.697L169.143 447.958Z" stroke="#FFBB25" stroke-width="2"/>
<path d="M509.299 475.471L556.769 448.112L604.238 475.471V530.185L556.769 557.543L509.299 530.185V475.471Z" stroke="#FFBB25" stroke-width="2"/>
<path d="M402.253 484.536V447.958H451.858C482.425 447.958 507.299 472.563 507.299 502.828C507.299 533.092 482.425 557.697 451.858 557.697H402.253V521.119H451.858C462.057 521.119 470.349 512.904 470.349 502.828C470.349 492.75 462.057 484.536 451.858 484.536H402.253Z" stroke="#FFBB25" stroke-width="2"/>
<path d="M494.302 167.609C494.302 197.911 518.911 222.479 549.271 222.479C579.63 222.479 604.239 197.911 604.239 167.609C604.239 137.307 579.63 112.74 549.271 112.74C518.911 112.74 494.302 137.307 494.302 167.609Z" stroke="#FFBB25" stroke-width="2"/>
<path d="M474.08 167.609C474.08 177.875 482.153 186.255 492.303 186.774L492.303 222.47C462.404 221.938 438.334 197.578 438.334 167.609C438.334 137.641 462.404 113.281 492.303 112.748L492.303 148.445C482.153 148.964 474.08 157.344 474.08 167.609Z" stroke="#FFBB25" stroke-width="2"/>
<rect x="-1" y="1" width="109.936" height="109.739" transform="matrix(-1 0 0 1 314.161 111.74)" stroke="#FFBB25" stroke-width="2"/>
<path d="M436.335 112.739L366.797 112.739L317.505 167.609L366.797 222.479L436.335 222.479L436.335 112.739Z" stroke="#FFBB25" stroke-width="2"/>
<path d="M96.1787 140.252L48.7089 112.894L1.23905 140.252V194.966L48.7089 222.325L96.1787 194.966V140.252Z" stroke="#FFBB25" stroke-width="2"/>
<path d="M203.225 149.318V112.74H153.62C123.053 112.74 98.1788 137.345 98.1788 167.609C98.1788 197.873 123.053 222.479 153.62 222.479H203.225V185.901H153.62C143.421 185.901 135.129 177.685 135.129 167.609C135.129 157.531 143.421 149.318 153.62 149.318H203.225Z" stroke="#FFBB25" stroke-width="2"/>
<path d="M494.302 391.088C494.302 421.39 518.911 445.958 549.271 445.958C579.63 445.958 604.239 421.39 604.239 391.088C604.239 360.786 579.63 336.219 549.271 336.219C518.911 336.219 494.302 360.786 494.302 391.088Z" stroke="#FFBB25" stroke-width="2"/>
<path d="M474.08 391.088C474.08 401.353 482.153 409.733 492.303 410.253L492.303 445.949C462.404 445.417 438.334 421.057 438.334 391.088C438.334 361.12 462.404 336.76 492.303 336.227L492.303 371.924C482.153 372.443 474.08 380.823 474.08 391.088Z" stroke="#FFBB25" stroke-width="2"/>
<rect x="-1" y="1" width="109.936" height="109.739" transform="matrix(-1 0 0 1 314.161 335.219)" stroke="#FFBB25" stroke-width="2"/>
<path d="M436.335 336.219L366.797 336.219L317.505 391.088L366.797 445.958L436.335 445.958L436.335 336.219Z" stroke="#FFBB25" stroke-width="2"/>
<path d="M96.1787 363.731L48.7089 336.373L1.23905 363.731V418.445L48.7089 445.804L96.1787 418.445V363.731Z" stroke="#FFBB25" stroke-width="2"/>
<path d="M203.225 372.797V336.219H153.62C123.053 336.219 98.1788 360.824 98.1788 391.088C98.1788 421.352 123.053 445.958 153.62 445.958H203.225V409.38H153.62C143.421 409.38 135.129 401.164 135.129 391.088C135.129 381.01 143.421 372.797 153.62 372.797H203.225Z" stroke="#FFBB25" stroke-width="2"/>
<path d="M494.302 614.13C494.302 644.432 518.911 669 549.271 669C579.63 669 604.239 644.432 604.239 614.13C604.239 583.828 579.63 559.26 549.271 559.26C518.911 559.26 494.302 583.828 494.302 614.13Z" stroke="#FFBB25" stroke-width="2"/>
<path d="M474.08 614.13C474.08 624.396 482.153 632.776 492.303 633.295L492.303 668.991C462.404 668.459 438.334 644.099 438.334 614.13C438.334 584.162 462.404 559.802 492.303 559.269L492.303 594.966C482.153 595.485 474.08 603.865 474.08 614.13Z" stroke="#FFBB25" stroke-width="2"/>
<rect x="-1" y="1" width="109.936" height="109.739" transform="matrix(-1 0 0 1 314.161 558.26)" stroke="#FFBB25" stroke-width="2"/>
<path d="M436.335 559.26L366.797 559.26L317.505 614.13L366.797 669L436.335 669L436.335 559.26Z" stroke="#FFBB25" stroke-width="2"/>
<path d="M96.1787 586.773L48.7089 559.415L1.23905 586.773V641.487L48.7089 668.846L96.1787 641.487V586.773Z" stroke="#FFBB25" stroke-width="2"/>
<path d="M203.225 595.839V559.26H153.62C123.053 559.26 98.1788 583.866 98.1788 614.13C98.1788 644.394 123.053 669 153.62 669H203.225V632.422H153.62C143.421 632.422 135.129 624.206 135.129 614.13C135.129 604.052 143.421 595.839 153.62 595.839H203.225Z" stroke="#FFBB25" stroke-width="2"/>
</svg>
